<?xml version="1.0" encoding="UTF-8"?>
<svg width="1024px" height="1024px" viewBox="0 0 1024 1024" version="1.1" xmlns="http://www.w3.org/2000/svg" xmlns:xlink="http://www.w3.org/1999/xlink">
    <!-- Generator: Sketch 55 (78076) - https://sketchapp.com -->
    <title>icon-Package-1024</title>
    <desc>Created with Sketch.</desc>
    <defs>
        <path d="M398.656489,591.700324 C387.768519,592.563099 375.713293,590.898755 362.955059,586.771383 C348.928712,561.958184 326.325506,542.230356 306.356712,537.372976 C286.387919,532.515596 273.301268,543.561916 273.587786,565.032922 L273.587786,576.360458 C233.004866,552.105137 194.590134,508.889901 171.258848,461.243968 C171.258848,461.243968 125.77932,534.835015 228.108258,643.947912 C204.6923,645.183425 176.797765,635.731187 148.519084,616.978622 C250.848022,737.419054 375.916724,758.762514 375.916724,628.495848 C375.906254,625.334075 375.60175,621.996755 375.007134,618.526857 C386.611271,614.360868 394.800136,605.071868 398.656489,591.700324 Z" id="path-1"></path>
        <filter x="-1.4%" y="-2.1%" width="105.6%" height="104.3%" filterUnits="objectBoundingBox" id="filter-2">
            <feOffset dx="5" dy="0" in="SourceAlpha" result="shadowOffsetOuter1"></feOffset>
            <feGaussianBlur stdDeviation="1" in="shadowOffsetOuter1" result="shadowBlurOuter1"></feGaussianBlur>
            <feColorMatrix values="0 0 0 0 0.109803922   0 0 0 0 0.450980392   0 0 0 0 0.658823529  0 0 0 1 0" type="matrix" in="shadowBlurOuter1"></feColorMatrix>
        </filter>
        <polygon id="path-3" points="703.526519 385.984743 254.436255 151.143496 347.39146 101.612332 797.333214 336.046659"></polygon>
        <filter x="-1.4%" y="-0.9%" width="101.8%" height="103.5%" filterUnits="objectBoundingBox" id="filter-4">
            <feOffset dx="-3" dy="3" in="SourceAlpha" result="shadowOffsetOuter1"></feOffset>
            <feGaussianBlur stdDeviation="1" in="shadowOffsetOuter1" result="shadowBlurOuter1"></feGaussianBlur>
            <feColorMatrix values="0 0 0 0 0.0827325286   0 0 0 0 0.401331211   0 0 0 0 0.595420063  0 0 0 1 0" type="matrix" in="shadowBlurOuter1"></feColorMatrix>
        </filter>
        <polygon id="path-5" points="703.51145 385.984743 703.51145 510.756032 799.918575 466.455764 797.333214 336.046659"></polygon>
        <filter x="-7.8%" y="-1.4%" width="110.4%" height="105.7%" filterUnits="objectBoundingBox" id="filter-6">
            <feOffset dx="-3" dy="3" in="SourceAlpha" result="shadowOffsetOuter1"></feOffset>
            <feGaussianBlur stdDeviation="1" in="shadowOffsetOuter1" result="shadowBlurOuter1"></feGaussianBlur>
            <feColorMatrix values="0 0 0 0 0.0827325286   0 0 0 0 0.401331211   0 0 0 0 0.595420063  0 0 0 1 0" type="matrix" in="shadowBlurOuter1"></feColorMatrix>
        </filter>
    </defs>
    <g id="Package-1024" stroke="none" stroke-width="1" fill="none" fill-rule="evenodd">
        <g id="Package" transform="translate(0.000000, 26.000000)">
            <polygon id="Path-3" fill="#1DA1F2" fill-rule="evenodd" points="72.956743 252.767903 513.302799 487.302949 953.648855 252.767903 508.091603 20.847185"></polygon>
            <polygon id="Path-2" fill="#62C3FF" fill-rule="evenodd" points="72.956743 252.772118 513.302799 487.302949 513.302799 951.152815 72.956743 719.227882"></polygon>
            <polygon id="Path-2" fill="#1A84C6" fill-rule="evenodd" transform="translate(733.475827, 601.957914) scale(-1, 1) translate(-733.475827, -601.957914) " points="513.302799 252.767903 953.648855 487.302949 953.648855 951.152815 513.302799 719.227882"></polygon>
            <g id="Twitter">
                <use fill="black" fill-opacity="1" filter="url(#filter-2)" xlink:href="#path-1"></use>
                <use fill="#FFFFFF" fill-rule="evenodd" xlink:href="#path-1"></use>
            </g>
            <g id="Tape-Top" fill-rule="nonzero">
                <use fill="black" fill-opacity="1" filter="url(#filter-4)" xlink:href="#path-3"></use>
                <use fill="#1C73A8" xlink:href="#path-3"></use>
            </g>
            <g id="Tape-Side" fill-rule="nonzero">
                <use fill="black" fill-opacity="1" filter="url(#filter-6)" xlink:href="#path-5"></use>
                <use fill="#156290" xlink:href="#path-5"></use>
            </g>
        </g>
    </g>
</svg>